<svg viewBox="0 0 88 44" xmlns="http://www.w3.org/2000/svg" id="franceinter-rect"><path d="M0 0h88v44H0z" fill="#E20134"/><path d="M52.959 16.165c0 .47-.076.912-.704.912-.36 0-.518-.222-.518-.477 0-.345.22-.531.821-.531h.4v.096Zm.966.608v-1.498c0-.856-.524-1.229-1.477-1.236-.98 0-1.398.414-1.507.959l.913.187c.042-.262.138-.435.552-.435.463 0 .553.249.553.504v.214h-.511c-1.05 0-1.698.38-1.698 1.194 0 .553.359 1.119 1.222 1.119.635 0 .876-.235 1.007-.435 0 .09.021.283.049.352h.945c-.02-.083-.048-.58-.048-.925Zm9.55-1.257c-.007-.414-.172-.766-.656-.766-.469 0-.662.325-.704.766h1.36Zm-1.38.608c0 .449.227.883.718.883.414 0 .531-.165.628-.38h.987c-.124.436-.518 1.154-1.636 1.154-1.18 0-1.691-.877-1.691-1.816 0-1.125.573-1.926 1.725-1.926 1.222 0 1.643.89 1.643 1.781 0 .124 0 .2-.014.304h-2.36Zm-1.076.421c-.117.594-.538 1.236-1.601 1.236-1.112 0-1.685-.767-1.685-1.843 0-1.057.642-1.899 1.733-1.899 1.2 0 1.54.87 1.553 1.27h-.96c-.061-.29-.227-.49-.614-.49-.455 0-.71.394-.71 1.084 0 .766.275 1.111.703 1.111.345 0 .525-.2.615-.469h.966Zm-6.696-1.519c0-.303 0-.635-.007-.904h.96c.02.097.034.345.041.456.118-.221.408-.539 1.036-.539.718 0 1.18.49 1.18 1.388v2.27h-.987v-2.16c0-.407-.131-.697-.573-.697-.421 0-.656.235-.656.87v1.988h-.994v-2.672Zm-5.584.07c0-.36 0-.67-.007-.974h.973c.014.083.028.435.028.628.159-.407.539-.704 1.146-.71v.945c-.718-.02-1.146.173-1.146 1.153v1.56h-.994v-2.603Zm-1.646 2.602v-2.83h-.29v-.746h.29v-.31c0-.74.366-1.222 1.14-1.222.158 0 .365.014.455.041v.78a1.729 1.729 0 0 0-.207-.014c-.29 0-.4.104-.4.49v.235h.504v.745h-.505v2.83h-.987Zm10.557 5.214c0-1.144 0-2.134-.022-3.102h3.101c.044.264.089 1.386.089 2.002.505-1.298 1.715-2.244 3.651-2.266v3.014c-2.288-.066-3.651.55-3.651 3.674v4.971H57.65v-8.293Zm-4.153 1.342c-.022-1.32-.55-2.442-2.09-2.442-1.496 0-2.112 1.034-2.243 2.442h4.333Zm-4.4 1.935c0 1.43.727 2.816 2.288 2.816 1.32 0 1.694-.527 2.002-1.21h3.146c-.396 1.386-1.65 3.674-5.214 3.674-3.761 0-5.39-2.793-5.39-5.785 0-3.586 1.827-6.138 5.5-6.138 3.894 0 5.236 2.838 5.236 5.676 0 .395 0 .638-.044.967h-7.523ZM38.87 19.81h1.76v-3.08h3.145v3.08h2.244v2.376h-2.243v5.631c0 .859.264 1.188 1.21 1.188.175 0 .483 0 .703-.021v2.155c-.616.22-1.474.22-2.112.22-2.221 0-2.947-1.188-2.947-3.19v-5.983h-1.76V19.81Zm-10.594 2.882c0-.968 0-2.024-.022-2.882h3.058c.066.308.11 1.1.132 1.452.374-.704 1.298-1.716 3.3-1.716 2.288 0 3.761 1.562 3.761 4.422v7.237H35.36V24.32c0-1.298-.418-2.222-1.826-2.222-1.342 0-2.09.748-2.09 2.772v6.335h-3.168v-8.513Zm-4.745-2.882h3.168v11.395H23.53V19.81Zm0-1.848v-2.816h3.168v2.816H23.53Z" fill="#fff"/></svg>
